<svg width="100" height="100" viewBox="0 0 100 100" fill="none" xmlns="http://www.w3.org/2000/svg">
<path d="M55.4379 24.5103V25.273C53.3934 25.2328 51.3489 25.2328 49.3044 25.2328V24.5504C49.3044 21.7807 46.9737 19.5328 44.1932 19.5328H40.1451C35.5246 19.5328 31.7627 15.8398 31.7627 11.3441C31.7627 9.69829 33.1529 8.3335 34.8294 8.3335C36.5468 8.3335 37.8962 9.69829 37.8962 11.3441C37.8962 12.5483 38.9184 13.5117 40.1451 13.5117H44.1932C50.3675 13.5518 55.397 18.4891 55.4379 24.5103Z" fill="white" fill-opacity="0.6"/>
<path fill-rule="evenodd" clip-rule="evenodd" d="M63.1835 25.3468C64.4964 25.3649 65.8124 25.3829 67.133 25.3964C81.3217 25.3964 91.6668 35.5119 91.6668 49.4809V67.4239C91.6668 81.393 81.3217 91.5085 67.133 91.5085C61.4493 91.6289 55.7656 91.669 50.041 91.669C44.3165 91.669 38.551 91.6289 32.8674 91.5085C18.6786 91.5085 8.3335 81.393 8.3335 67.4239V49.4809C8.3335 35.5119 18.6786 25.3964 32.9082 25.3964C38.2648 25.3161 43.744 25.2358 49.305 25.2358C51.3495 25.2358 53.394 25.2358 55.4385 25.276C58.0162 25.276 60.5939 25.3113 63.1835 25.3468ZM45.2166 61.441H40.9232V65.6959C40.9232 67.3417 39.5329 68.7065 37.8564 68.7065C36.1391 68.7065 34.7897 67.3417 34.7897 65.6959V61.441H30.4554C28.7789 61.441 27.3887 60.1163 27.3887 58.4304C27.3887 56.7846 28.7789 55.4199 30.4554 55.4199H34.7897V51.2051C34.7897 49.5593 36.1391 48.1945 37.8564 48.1945C39.5329 48.1945 40.9232 49.5593 40.9232 51.2051V55.4199H45.2166C46.8931 55.4199 48.2833 56.7846 48.2833 58.4304C48.2833 60.1163 46.8931 61.441 45.2166 61.441ZM62.5958 54.6556H63.0047C64.6812 54.6556 66.0715 53.3309 66.0715 51.645C66.0715 49.9992 64.6812 48.6345 63.0047 48.6345H62.5958C60.8785 48.6345 59.5291 49.9992 59.5291 51.645C59.5291 53.3309 60.8785 54.6556 62.5958 54.6556ZM69.5872 68.4651H69.9961C71.6725 68.4651 73.0628 67.1404 73.0628 65.4545C73.0628 63.8087 71.6725 62.4439 69.9961 62.4439H69.5872C67.8698 62.4439 66.5204 63.8087 66.5204 65.4545C66.5204 67.1404 67.8698 68.4651 69.5872 68.4651Z" fill="white"/>
</svg>
